<svg xmlns="http://www.w3.org/2000/svg" width="32" height="32" viewBox="0 0 100 100"><style>.i,.ti{fill:#0E0F11}.tw{fill:#fff}.sw{fill:none;stroke:#fff}.a{fill:#D80621}.si{fill:none;stroke:#0E0F11}.sa{fill:none;stroke:#D80621}</style><rect width="100" height="100" fill="#FFFFFF"/><g transform="translate(0 0) scale(1)"><path class="i" transform="translate(3.514 78.057) scale(0.19648)" d="M 118 4.8 Q 66 4.8 41.600002 -15.6 Q 17.2 -36 14.8 -67.6 L 75.6 -69.6 Q 78.4 -54.4 88 -46 Q 97.6 -37.600002 118 -37.600002 Q 151.2 -37.600002 151.2 -59.2 Q 151.2 -66 148 -70.4 Q 144.8 -74.8 135.6 -78.200005 Q 126.4 -81.6 108.4 -84.4 Q 74.8 -90.4 55.8 -98.6 Q 36.8 -106.8 29 -119.399994 Q 21.2 -132 21.2 -150.40001 Q 21.2 -181.2 45.2 -200.19998 Q 69.200005 -219.2 116.8 -219.2 Q 148.8 -219.2 169.6 -209.6 Q 190.4 -200 201 -183.2 Q 211.60002 -166.40001 213.2 -145.6 L 153.2 -143.2 Q 152.40001 -158 143.40001 -167.40001 Q 134.40001 -176.8 116 -176.8 Q 100 -176.8 91.6 -170.2 Q 83.200005 -163.6 83.200005 -152.8 Q 83.200005 -141.2 91.399994 -135.40001 Q 99.6 -129.6 121.6 -126.4 Q 155.6 -121.200005 175.6 -112.8 Q 195.60002 -104.4 204.2 -91.6 Q 212.8 -78.8 212.8 -60 Q 212.8 -28.8 187.2 -12 Q 161.6 4.8 118 4.8 Z"/><path class="a" transform="translate(46.738 78.057) scale(0.19648)" d="M 23.2 0 Q 23.2 -36.4 33 -63.2 Q 42.8 -90 65 -111 Q 87.2 -132 124 -151.6 Q 143.6 -161.6 155 -169.40001 Q 166.40001 -177.20001 171.2 -185.20001 Q 176 -193.20001 176 -204 Q 176 -219.60002 165.8 -229.40001 Q 155.6 -239.2 136 -239.2 Q 114 -239.2 101.4 -226.40001 Q 88.8 -213.6 86 -190 L 23.6 -193.6 Q 27.6 -238.79999 56.600002 -264.6 Q 85.6 -290.4 135.2 -290.4 Q 184.40001 -290.4 211.40001 -266.80002 Q 238.4 -243.2 238.4 -204.8 Q 238.4 -182.4 231 -167.2 Q 223.6 -152 207.2 -139.2 Q 190.79999 -126.4 164 -112 Q 129.6 -93.6 113.200005 -78.200005 Q 96.8 -62.8 95.6 -51.2 L 238.4 -51.2 L 238.4 0 L 23.2 0 Z"/></g></svg>